<?xml version="1.0" encoding="UTF-8"?>
<svg width="32" height="32" version="1.1" viewBox="0 0 32 32" xml:space="preserve" xmlns="http://www.w3.org/2000/svg"><g stroke-linecap="round" stroke-linejoin="round" stroke-width="3"><path d="m10 18h1c2.1269-1.6483 4.4105-3.6356 5-2 0.20695 2.0965-0.50918 4.0281-1 6-0.7331 1.8802-1.3615 3.8442-3 5-1.5157 1.0895-0.84789-1.3312-3-2-1.2901 0.02432-2 1.0572-2 2 0 1 1.4177 2 3 2 1.5301 0 3.0128-0.87283 4-2 2.1035-3.0551 3.4369-6.4295 4-10.123 0.43604-1.5384-0.11323-2.3825-1-2.8767-2.4966-1.3914-5.1727 1.281-7 4z"/><path d="m23 24h1c-1.1361 2.2895-2.9725 4.9722-6 5-2.0735-0.06373-3.1158-1.7634-3-4 1.0405-4.1108 4.2102-13.849 9-11 1.4125 1.171 0.91382 3.7844-1 3.2192-0.71606-0.36459-0.99023-2.3826-2-1.8369-1.9646 1.3129-3.7714 6.0741-4 9.6177-0.04799 0.74381 0.35617 1.6245 1 2 2.112 1.2319 5.0021-2.9941 5-3z"/></g></svg>
